<svg xmlns="http://www.w3.org/2000/svg" width="800" height="1200" viewBox="0 0 800 1200"><rect width="800" height="1200" fill="#c8282d"/><path d="M400,1250 L2000,1250 L1991,1417Z" fill="#a51d22"/><path d="M400,1250 L1965,1583 L1922,1744Z" fill="#a51d22"/><path d="M400,1250 L1862,1901 L1786,2050Z" fill="#a51d22"/><path d="M400,1250 L1694,2190 L1589,2321Z" fill="#a51d22"/><path d="M400,1250 L1471,2439 L1340,2544Z" fill="#a51d22"/><path d="M400,1250 L1200,2636 L1051,2712Z" fill="#a51d22"/><path d="M400,1250 L894,2772 L733,2815Z" fill="#a51d22"/><path d="M400,1250 L567,2841 L400,2850Z" fill="#a51d22"/><path d="M400,1250 L233,2841 L67,2815Z" fill="#a51d22"/><path d="M400,1250 L-94,2772 L-251,2712Z" fill="#a51d22"/><path d="M400,1250 L-400,2636 L-540,2544Z" fill="#a51d22"/><path d="M400,1250 L-671,2439 L-789,2321Z" fill="#a51d22"/><path d="M400,1250 L-894,2190 L-986,2050Z" fill="#a51d22"/><path d="M400,1250 L-1062,1901 L-1122,1744Z" fill="#a51d22"/><path d="M400,1250 L-1165,1583 L-1191,1417Z" fill="#a51d22"/><path d="M400,1250 L-1200,1250 L-1191,1083Z" fill="#a51d22"/><path d="M400,1250 L-1165,917 L-1122,756Z" fill="#a51d22"/><path d="M400,1250 L-1062,599 L-986,450Z" fill="#a51d22"/><path d="M400,1250 L-894,310 L-789,179Z" fill="#a51d22"/><path d="M400,1250 L-671,61 L-540,-44Z" fill="#a51d22"/><path d="M400,1250 L-400,-136 L-251,-212Z" fill="#a51d22"/><path d="M400,1250 L-94,-272 L67,-315Z" fill="#a51d22"/><path d="M400,1250 L233,-341 L400,-350Z" fill="#a51d22"/><path d="M400,1250 L567,-341 L733,-315Z" fill="#a51d22"/><path d="M400,1250 L894,-272 L1051,-212Z" fill="#a51d22"/><path d="M400,1250 L1200,-136 L1340,-44Z" fill="#a51d22"/><path d="M400,1250 L1471,61 L1589,179Z" fill="#a51d22"/><path d="M400,1250 L1694,310 L1786,450Z" fill="#a51d22"/><path d="M400,1250 L1862,599 L1922,756Z" fill="#a51d22"/><path d="M400,1250 L1965,917 L1991,1083Z" fill="#a51d22"/><g transform="translate(-35 -40) scale(1.08)"><g transform="scale(1)" ><path d="M20,1080 L40,730 Q170,670 300,730 L320,1080Z" fill="#14110f"/><path d="M-5,790 Q0,710 80,710 L90,820Z" fill="#c8282d"/><path d="M345,790 Q340,710 260,710 L250,820Z" fill="#c8282d"/><path d="M150,740 L190,740 L180,890 L160,890Z" fill="#c8282d"/><path d="M85,680 Q80,540 170,530 Q260,540 255,680 L225,725 L115,725Z" fill="#14110f"/><path d="M164,500 L176,500 L174,540 L166,540Z" fill="#c8282d"/><path d="M100,600 L240,600 L230,630 L110,630Z" fill="#ff5a3c"/><path d="M-45,790 L75,790 L75,940 Q15,1010 -45,940Z" fill="#c8282d" stroke="#14110f" stroke-width="10"/><path d="M15,815 l0,150 M-30,870 l90,0" stroke="#14110f" stroke-width="14"/><rect x="320" y="440" width="16" height="300" fill="#c8282d" transform="rotate(14 328 600)"/><rect x="298" y="710" width="62" height="14" fill="#14110f" transform="rotate(14 328 600)"/></g><g transform="scale(1)" ><path d="M250,1080 L270,730 Q400,670 530,730 L550,1080Z" fill="#2a1d1a"/><path d="M225,790 Q230,710 310,710 L320,820Z" fill="#c8282d"/><path d="M575,790 Q570,710 490,710 L480,820Z" fill="#c8282d"/><path d="M380,740 L420,740 L410,890 L390,890Z" fill="#c8282d"/><path d="M315,680 Q310,540 400,530 Q490,540 485,680 L455,725 L345,725Z" fill="#2a1d1a"/><path d="M394,500 L406,500 L404,540 L396,540Z" fill="#c8282d"/><path d="M330,600 L470,600 L460,630 L340,630Z" fill="#ff5a3c"/><path d="M185,790 L305,790 L305,940 Q245,1010 185,940Z" fill="#c8282d" stroke="#2a1d1a" stroke-width="10"/><path d="M245,815 l0,150 M200,870 l90,0" stroke="#2a1d1a" stroke-width="14"/><rect x="550" y="440" width="16" height="300" fill="#c8282d" transform="rotate(14 558 600)"/><rect x="528" y="710" width="62" height="14" fill="#2a1d1a" transform="rotate(14 558 600)"/></g><g transform="scale(1)" ><path d="M480,1080 L500,730 Q630,670 760,730 L780,1080Z" fill="#14110f"/><path d="M455,790 Q460,710 540,710 L550,820Z" fill="#c8282d"/><path d="M805,790 Q800,710 720,710 L710,820Z" fill="#c8282d"/><path d="M610,740 L650,740 L640,890 L620,890Z" fill="#c8282d"/><path d="M545,680 Q540,540 630,530 Q720,540 715,680 L685,725 L575,725Z" fill="#14110f"/><path d="M624,500 L636,500 L634,540 L626,540Z" fill="#c8282d"/><path d="M560,600 L700,600 L690,630 L570,630Z" fill="#ff5a3c"/><path d="M415,790 L535,790 L535,940 Q475,1010 415,940Z" fill="#c8282d" stroke="#14110f" stroke-width="10"/><path d="M475,815 l0,150 M430,870 l90,0" stroke="#14110f" stroke-width="14"/><rect x="780" y="440" width="16" height="300" fill="#c8282d" transform="rotate(14 788 600)"/><rect x="758" y="710" width="62" height="14" fill="#14110f" transform="rotate(14 788 600)"/></g></g><rect x="0" y="60" width="800" height="170" fill="#14110f"/><text x="400" y="188.2" font-family="Impact, Anton, 'Arial Black', 'DejaVu Sans', sans-serif" font-weight="900" font-size="120" fill="#f3e6c8" text-anchor="middle" letter-spacing="6" textLength="690" lengthAdjust="spacingAndGlyphs">HOLD THE</text><text x="400" y="380" font-family="Impact, Anton, 'Arial Black', 'DejaVu Sans', sans-serif" font-weight="900" font-size="170" fill="#f3e6c8" text-anchor="middle" letter-spacing="14" stroke="#14110f" stroke-width="6" paint-order="stroke">LINE</text><rect x="0" y="900" width="800" height="110" fill="#f3e6c8"/><text x="400" y="973.72" font-family="Impact, Anton, 'Arial Black', 'DejaVu Sans', sans-serif" font-weight="900" font-size="52" fill="#c8282d" text-anchor="middle" letter-spacing="6" textLength="690" lengthAdjust="spacingAndGlyphs">FIRST TO TWO. NO RETREAT.</text><text x="400" y="1075" font-family="Impact, Anton, 'Arial Black', 'DejaVu Sans', sans-serif" font-weight="900" font-size="30" fill="#f3e6c8" text-anchor="middle" letter-spacing="3" textLength="690" lengthAdjust="spacingAndGlyphs">RANKED DUELS  ·  GLORY AWAITS THE WORTHY</text><text x="400" y="1135" font-family="Impact, Anton, 'Arial Black', 'DejaVu Sans', sans-serif" font-weight="900" font-size="26" fill="#f2b33d" text-anchor="middle" letter-spacing="8">BRAINROT CRUSADERS</text><rect x="18" y="18" width="764" height="1164" fill="none" stroke="#f3e6c8" stroke-width="10"/><rect x="34" y="34" width="732" height="1132" fill="none" stroke="#f3e6c8" stroke-width="3"/><filter id="g"><feTurbulence type="fractalNoise" baseFrequency="0.9" numOctaves="2"/><feColorMatrix values="0 0 0 0 0  0 0 0 0 0  0 0 0 0 0  0 0 0 0.18 0"/></filter><rect width="800" height="1200" filter="url(#g)"/></svg>