<svg xmlns="http://www.w3.org/2000/svg" width="800" height="1200" viewBox="0 0 800 1200"><rect width="800" height="1200" fill="#16213a"/><path d="M400,560 L2000,560 L1992,717Z" fill="#1f2e52"/><path d="M400,560 L1969,872 L1931,1024Z" fill="#1f2e52"/><path d="M400,560 L1878,1172 L1811,1314Z" fill="#1f2e52"/><path d="M400,560 L1730,1449 L1637,1575Z" fill="#1f2e52"/><path d="M400,560 L1531,1691 L1415,1797Z" fill="#1f2e52"/><path d="M400,560 L1289,1890 L1154,1971Z" fill="#1f2e52"/><path d="M400,560 L1012,2038 L864,2091Z" fill="#1f2e52"/><path d="M400,560 L712,2129 L557,2152Z" fill="#1f2e52"/><path d="M400,560 L400,2160 L243,2152Z" fill="#1f2e52"/><path d="M400,560 L88,2129 L-64,2091Z" fill="#1f2e52"/><path d="M400,560 L-212,2038 L-354,1971Z" fill="#1f2e52"/><path d="M400,560 L-489,1890 L-615,1797Z" fill="#1f2e52"/><path d="M400,560 L-731,1691 L-837,1575Z" fill="#1f2e52"/><path d="M400,560 L-930,1449 L-1011,1314Z" fill="#1f2e52"/><path d="M400,560 L-1078,1172 L-1131,1024Z" fill="#1f2e52"/><path d="M400,560 L-1169,872 L-1192,717Z" fill="#1f2e52"/><path d="M400,560 L-1200,560 L-1192,403Z" fill="#1f2e52"/><path d="M400,560 L-1169,248 L-1131,96Z" fill="#1f2e52"/><path d="M400,560 L-1078,-52 L-1011,-194Z" fill="#1f2e52"/><path d="M400,560 L-930,-329 L-837,-455Z" fill="#1f2e52"/><path d="M400,560 L-731,-571 L-615,-677Z" fill="#1f2e52"/><path d="M400,560 L-489,-770 L-354,-851Z" fill="#1f2e52"/><path d="M400,560 L-212,-918 L-64,-971Z" fill="#1f2e52"/><path d="M400,560 L88,-1009 L243,-1032Z" fill="#1f2e52"/><path d="M400,560 L400,-1040 L557,-1032Z" fill="#1f2e52"/><path d="M400,560 L712,-1009 L864,-971Z" fill="#1f2e52"/><path d="M400,560 L1012,-918 L1154,-851Z" fill="#1f2e52"/><path d="M400,560 L1289,-770 L1415,-677Z" fill="#1f2e52"/><path d="M400,560 L1531,-571 L1637,-455Z" fill="#1f2e52"/><path d="M400,560 L1730,-329 L1811,-194Z" fill="#1f2e52"/><path d="M400,560 L1878,-52 L1931,96Z" fill="#1f2e52"/><path d="M400,560 L1969,248 L1992,403Z" fill="#1f2e52"/><circle cx="400" cy="560" r="230" fill="none" stroke="#f2b33d" stroke-width="10"/><g transform="translate(400 560) rotate(-35)"><rect x="-12" y="-330" width="24" height="330" fill="#14110f"/><path d="M-150,-330 Q0,-410 150,-330 L140,-305 Q0,-370 -140,-305Z" fill="#f3e6c8" stroke="#14110f" stroke-width="8"/></g><g transform="translate(400 560)"><path d="M-150,-40 L-90,-130 L90,-130 L150,-40 L0,170Z" fill="#7a3df0"/><path d="M-150,-40 L150,-40 L0,170Z" fill="#5a22c8"/><path d="M-90,-130 L-40,-40 L40,-40 L90,-130Z" fill="#b48cff"/><path d="M-40,-40 L0,170 L40,-40Z" fill="#9b6bff"/><path d="M-60,-110 L-20,-110 L-50,-60Z" fill="#fff" opacity=".8"/></g><text x="400" y="170" font-family="Impact, Anton, 'Arial Black', 'DejaVu Sans', sans-serif" font-weight="900" font-size="150" fill="#f2b33d" text-anchor="middle" letter-spacing="12" stroke="#14110f" stroke-width="6" paint-order="stroke">MINE</text><text x="400" y="260" font-family="Impact, Anton, 'Arial Black', 'DejaVu Sans', sans-serif" font-weight="900" font-size="62" fill="#f3e6c8" text-anchor="middle" letter-spacing="5" stroke="#14110f" stroke-width="6" paint-order="stroke" textLength="690" lengthAdjust="spacingAndGlyphs">FOR THE MOTHERSHIP</text><rect x="0" y="860" width="800" height="120" fill="#f2b33d"/><text x="400" y="945.92" font-family="Impact, Anton, 'Arial Black', 'DejaVu Sans', sans-serif" font-weight="900" font-size="72" fill="#14110f" text-anchor="middle" letter-spacing="6" textLength="690" lengthAdjust="spacingAndGlyphs">EVERY GEM COUNTS</text><text x="400" y="1050" font-family="Impact, Anton, 'Arial Black', 'DejaVu Sans', sans-serif" font-weight="900" font-size="32" fill="#f3e6c8" text-anchor="middle" letter-spacing="3" textLength="690" lengthAdjust="spacingAndGlyphs">SWING HARD. DIG DEEP. CUT CLEAN.</text><text x="400" y="1130" font-family="Impact, Anton, 'Arial Black', 'DejaVu Sans', sans-serif" font-weight="900" font-size="26" fill="#f2b33d" text-anchor="middle" letter-spacing="8">BRAINROT CRUSADERS</text><rect x="18" y="18" width="764" height="1164" fill="none" stroke="#f2b33d" stroke-width="10"/><rect x="34" y="34" width="732" height="1132" fill="none" stroke="#f2b33d" stroke-width="3"/><filter id="g"><feTurbulence type="fractalNoise" baseFrequency="0.9" numOctaves="2"/><feColorMatrix values="0 0 0 0 0  0 0 0 0 0  0 0 0 0 0  0 0 0 0.18 0"/></filter><rect width="800" height="1200" filter="url(#g)"/></svg>